<?xml version="1.0" encoding="utf-8"?>
<svg xmlns="http://www.w3.org/2000/svg">
  <symbol id="cart" viewBox="0 0 24 24">
    <path d="M14,18a1,1,0,0,0,1-1V15a1,1,0,0,0-2,0v2A1,1,0,0,0,14,18Zm-4,0a1,1,0,0,0,1-1V15a1,1,0,0,0-2,0v2A1,1,0,0,0,10,18ZM19,6H17.62L15.89,2.55a1,1,0,1,0-1.78.9L15.38,6H8.62L9.89,3.45a1,1,0,0,0-1.78-.9L6.38,6H5a3,3,0,0,0-.92,5.84l.74,7.46a3,3,0,0,0,3,2.7h8.38a3,3,0,0,0,3-2.7l.74-7.46A3,3,0,0,0,19,6ZM17.19,19.1a1,1,0,0,1-1,.9H7.81a1,1,0,0,1-1-.9L6.1,12H17.9ZM19,10H5A1,1,0,0,1,5,8H19a1,1,0,0,1,0,2Z" style="fill: white"/>
  </symbol>
  <symbol id="account" viewBox="0 0 24 24">
    <path d="M15.71,12.71a6,6,0,1,0-7.42,0,10,10,0,0,0-6.22,8.18,1,1,0,0,0,2,.22,8,8,0,0,1,15.9,0,1,1,0,0,0,1,.89h.11a1,1,0,0,0,.88-1.1A10,10,0,0,0,15.71,12.71ZM12,12a4,4,0,1,1,4-4A4,4,0,0,1,12,12Z" style="fill: white"/>
  </symbol>
  <symbol id="vk" viewBox="0 0 24 24">
    <path d="M1.69 1.69c-1.69,1.68 -1.69,4.4 -1.69,9.83l0 0.96c0,5.43 0,8.15 1.69,9.83 1.68,1.69 4.4,1.69 9.83,1.69l0.96 0c5.43,0 8.15,0 9.83,-1.69 1.69,-1.68 1.69,-4.4 1.69,-9.83l0 -0.96c0,-5.43 0,-8.15 -1.69,-9.83 -1.68,-1.69 -4.4,-1.69 -9.83,-1.69l-0.96 0c-5.43,0 -8.15,0 -9.83,1.69zm2.36 5.61c0.13,6.24 3.25,9.99 8.72,9.99l0.31 0 0 -3.57c2.01,0.2 3.53,1.67 4.14,3.57l2.84 0c-0.78,-2.84 -2.83,-4.41 -4.11,-5.01 1.28,-0.74 3.08,-2.54 3.51,-4.98l-2.58 0c-0.56,1.98 -2.22,3.78 -3.8,3.95l0 -3.95 -2.58 0 0 6.92c-1.6,-0.4 -3.62,-2.34 -3.71,-6.92l-2.74 0z" style="fill: white; fill-rule: evenodd; clip-rule: evenodd"/>
  </symbol>
  <symbol id="fb" viewBox="0 0 24 24">
    <path d="M11.95 24l0.01 0 0 0 -0.01 0zm0.09 0l0 0 0.01 0 -0.01 0zm-0.12 0l0.01 0 -0.01 0 0 0zm0.16 0l-0.01 0 0.01 0 0 0zm-0.2 0l0.01 0 -0.01 0 0 0zm0.24 0l-0.01 0 0.01 0 0 0zm0.03 0l0 0 0.01 0 -0.01 0zm-0.31 0l0.01 0 0 0 -0.01 0zm0.35 0l0 0 0.01 0 -0.01 0 0 0zm-0.39 0l0.01 0 0 0 -0.01 0 0 0zm0.43 0l-0.01 0 0.02 0 -0.01 0 0 0zm-0.47 0l0.02 0 -0.01 0 -0.01 0 0 0zm-0.04 0l0.01 0 0 0 -0.01 0 0 0zm0.55 0l0 0 0.01 0 -0.01 0 0 0zm-0.59 0l0.02 0 -0.01 0 -0.01 0zm0.63 0l-0.01 0 0.02 0 -0.01 0zm0.04 0l-0.01 0 0.01 0 0 0zm-0.7 0l0.01 0 -0.01 0 0 0zm-0.04 0l0.01 0 -0.01 0 -0.01 0 0.01 0zm0.78 0l-0.01 0 0.01 0 0.01 0 -0.01 0zm0.04 -0.01l-0.01 0 0.02 0 -0.01 0 0 0zm-0.87 0l0.02 0 -0.01 0 -0.01 0 0 0zm-0.03 0l0.02 0 -0.01 0 -0.01 0 0 0zm0.93 0l-0.01 0 0.02 0 -0.01 0 0 0zm-0.97 0l0.02 0 -0.01 0 -0.01 0zm1.01 0l-0.01 0 0.02 0 -0.01 0zm-1.05 0l0.01 0 0 0 -0.01 0zm1.09 0l0 0 0.01 0 -0.01 0zm-1.13 0l0.02 0 -0.01 0 -0.01 0 0 0zm1.17 0l-0.01 0 0.02 0 -0.01 0 0 0zm-1.2 0l0.02 0 -0.02 0 0 0zm1.24 0l-0.02 0 0.02 0 0 0zm0.04 -0.01l-0.02 0 0.01 0 0.02 0 -0.01 0 0 0zm-1.31 0l0.01 0 -0.02 0 -0.01 0 0.02 0 0 0zm1.34 0l0 0 0.02 0 -0.02 0zm-1.4 0l0.02 0 0 0 -0.02 0zm-0.03 0l0.02 0 -0.01 0 -0.01 0 0 0zm1.47 0l-0.01 0 0.02 0 -0.01 0 0 0zm-1.5 0l0.02 0 -0.02 0 -0.02 0 0.02 0zm1.54 0l-0.02 0 0.02 0 0.02 0 -0.02 0zm0.04 -0.01l-0.01 0.01 0.02 -0.01 -0.01 0zm-1.63 0l0.02 0.01 -0.01 -0.01 -0.01 0zm-0.04 0l0.02 0 -0.01 0 -0.01 0zm1.71 0l-0.01 0 0.02 0 -0.01 0zm-1.74 0l0.02 0 -0.01 0 -0.01 0zm1.77 0l-0.01 0 0.02 0 -0.01 0zm-1.81 0l0.01 0 0 0 -0.01 0zm1.85 0l0 0 0.01 0 -0.01 0zm0.04 -0.01l-0.01 0 0.02 0 -0.01 0zm-1.93 0l0.02 0 -0.01 0 -0.01 0zm-0.03 0l0.01 0 -0.01 0 0 0 0 0zm2 0l-0.01 0 0.01 0 0 0 0 0zm-2.04 0l0 0 0 0 0 0zm2.08 0l0 0 0 0 0 0zm0.03 -0.01l0 0 0.01 0 -0.01 0zm-2.15 0l0.01 0 0 0 -0.01 0zm-0.04 0l0.01 0 0 0 -0.01 0zm2.23 0l0 0 0.01 0 -0.01 0zm-2.98 -0.1c-5.74,-0.9 -10.13,-5.86 -10.13,-11.85 0,-6.62 5.38,-12 12,-12 6.62,0 12,5.38 12,12 0,5.99 -4.39,10.95 -10.13,11.85l0 -8.38 2.8 0 0.53 -3.47 -3.33 0 0 -2.25c0,-0.95 0.47,-1.88 1.96,-1.88l1.51 0.01 0 -2.96c0,0 -1.37,-0.23 -2.68,-0.23 -2.74,0 -4.53,1.66 -4.53,4.67l0 2.64 -3.05 0 0 3.47 3.05 0 0 8.38z" style="fill: white; fill-rule: evenodd; clip-rule: evenodd; stroke-linejoin: round; stroke-miterlimit: 2"/>
  </symbol>
  <symbol id="ig" viewBox="0 0 24 24">
    <path d="M7.03 0.08c-1.28,0.06 -2.15,0.27 -2.91,0.57 -0.79,0.3 -1.46,0.72 -2.12,1.38 -0.67,0.67 -1.08,1.34 -1.38,2.13 -0.3,0.77 -0.5,1.64 -0.56,2.92 -0.05,1.27 -0.07,1.68 -0.06,4.94 0.01,3.26 0.02,3.67 0.08,4.95 0.06,1.28 0.27,2.15 0.57,2.91 0.3,0.79 0.72,1.46 1.38,2.12 0.67,0.67 1.34,1.08 2.13,1.38 0.77,0.3 1.64,0.5 2.92,0.56 1.27,0.05 1.69,0.07 4.94,0.06 3.26,-0.01 3.67,-0.02 4.95,-0.08 1.28,-0.06 2.15,-0.27 2.91,-0.56 0.79,-0.31 1.46,-0.73 2.12,-1.39 0.67,-0.67 1.08,-1.34 1.38,-2.13 0.3,-0.76 0.5,-1.64 0.56,-2.91 0.05,-1.29 0.07,-1.69 0.06,-4.95 -0.01,-3.26 -0.02,-3.67 -0.08,-4.95 -0.06,-1.28 -0.27,-2.15 -0.56,-2.91 -0.31,-0.79 -0.73,-1.46 -1.39,-2.12 -0.67,-0.67 -1.34,-1.08 -2.13,-1.38 -0.76,-0.3 -1.64,-0.5 -2.92,-0.56 -1.27,-0.05 -1.68,-0.07 -4.94,-0.06 -3.26,0.01 -3.67,0.02 -4.95,0.08l0 0zm0.14 21.7c-1.17,-0.05 -1.81,-0.25 -2.23,-0.41 -0.56,-0.22 -0.96,-0.48 -1.38,-0.89 -0.42,-0.42 -0.68,-0.82 -0.9,-1.38 -0.17,-0.43 -0.36,-1.06 -0.42,-2.23 -0.06,-1.27 -0.07,-1.65 -0.08,-4.85 0,-3.2 0.01,-3.58 0.06,-4.85 0.05,-1.17 0.25,-1.8 0.41,-2.23 0.22,-0.56 0.48,-0.96 0.9,-1.38 0.42,-0.42 0.81,-0.68 1.37,-0.9 0.43,-0.16 1.06,-0.36 2.23,-0.42 1.27,-0.06 1.65,-0.07 4.85,-0.07 3.2,-0.01 3.58,0 4.85,0.06 1.17,0.05 1.81,0.24 2.23,0.4 0.56,0.22 0.96,0.48 1.38,0.9 0.42,0.42 0.68,0.82 0.9,1.38 0.17,0.42 0.36,1.05 0.42,2.22 0.06,1.27 0.07,1.65 0.08,4.85 0,3.21 -0.01,3.59 -0.06,4.85 -0.05,1.17 -0.25,1.81 -0.41,2.23 -0.22,0.56 -0.48,0.96 -0.9,1.38 -0.42,0.42 -0.81,0.68 -1.38,0.9 -0.42,0.17 -1.05,0.36 -2.22,0.42 -1.27,0.06 -1.65,0.07 -4.85,0.08 -3.21,0.01 -3.58,-0.01 -4.85,-0.06l0 0zm9.78 -16.19c0.01,0.79 0.65,1.43 1.44,1.43 0.8,0 1.44,-0.64 1.44,-1.44 0,-0.79 -0.64,-1.44 -1.44,-1.44 0,0 0,0 0,0 -0.79,0 -1.44,0.65 -1.44,1.44 0,0 0,0 0,0.01l0 0zm-11.11 6.42c0,3.41 2.77,6.16 6.17,6.15 3.4,0 6.16,-2.77 6.15,-6.17 0,-3.41 -2.77,-6.16 -6.17,-6.15 -3.4,0 -6.16,2.77 -6.15,6.17l0 0zm2.16 0c0,-0.01 0,-0.01 0,-0.01 0,-2.21 1.79,-4 4,-4 2.21,0 4,1.79 4,4 0,2.21 -1.79,4 -3.99,4 0,0 -0.01,0 -0.01,0 -2.21,0 -4,-1.79 -4,-3.99l0 0zm0 0l0 0 0 0z" style="fill: white; fill-rule: nonzero"/>
  </symbol>
  <symbol id="visa" viewBox="0 0 4745 2000.17">
    <path d="M1812.94 276.54l-608.13 1450.92 -396.76 0 -299.26 -1157.91c-18.17,-71.31 -33.97,-97.44 -89.23,-127.49 -90.21,-48.94 -239.19,-94.86 -370.26,-123.36l8.9 -42.16 638.66 0c81.41,0 154.59,54.19 173.07,147.93l158.05 839.58 390.62 -987.54 394.34 0 0 0.03zm1554.56 977.2c1.59,-382.94 -529.53,-404.03 -525.88,-575.1 1.14,-52.06 50.71,-107.42 159.22,-121.54 53.77,-7.04 201.95,-12.41 370.02,64.93l65.92 -307.68c-90.31,-32.78 -206.5,-64.33 -351.08,-64.33 -370.99,0 -632.08,197.22 -634.28,479.62 -2.39,208.87 186.36,325.44 328.56,394.84 146.29,71.08 195.38,116.76 194.82,180.33 -1.04,97.33 -116.68,140.3 -224.75,141.99 -188.65,2.91 -298.12,-51.05 -385.38,-91.62l-68.03 317.87c87.7,40.23 249.57,75.34 417.39,77.1 394.32,0 652.26,-194.77 653.47,-496.41l0 0zm979.65 473.72l347.14 0 -303.01 -1450.92 -320.41 0c-72.04,0 -132.82,41.95 -159.72,106.44l-563.22 1344.48 394.12 0 78.23 -216.72 481.56 0 45.31 216.72zm-418.8 -514.09l197.56 -544.77 113.7 544.77 -311.26 0zm-1579.14 -936.83l-310.37 1450.92 -375.32 0 310.49 -1450.92 375.2 0z" style="fill: white; fill-rule: nonzero"/>
  </symbol>
  <symbol id="visa-color" viewBox="0 0 4745 2000.17">
    <path d="M1812.94 276.54l-608.13 1450.92 -396.76 0 -299.26 -1157.91c-18.17,-71.31 -33.97,-97.44 -89.23,-127.49 -90.21,-48.94 -239.19,-94.86 -370.26,-123.36l8.9 -42.16 638.66 0c81.41,0 154.59,54.19 173.07,147.93l158.05 839.58 390.62 -987.54 394.34 0 0 0.03zm1554.56 977.2c1.59,-382.94 -529.53,-404.03 -525.88,-575.1 1.14,-52.06 50.71,-107.42 159.22,-121.54 53.77,-7.04 201.95,-12.41 370.02,64.93l65.92 -307.68c-90.31,-32.78 -206.5,-64.33 -351.08,-64.33 -370.99,0 -632.08,197.22 -634.28,479.62 -2.39,208.87 186.36,325.44 328.56,394.84 146.29,71.08 195.38,116.76 194.82,180.33 -1.04,97.33 -116.68,140.3 -224.75,141.99 -188.65,2.91 -298.12,-51.05 -385.38,-91.62l-68.03 317.87c87.7,40.23 249.57,75.34 417.39,77.1 394.32,0 652.26,-194.77 653.47,-496.41l0 0zm979.65 473.72l347.14 0 -303.01 -1450.92 -320.41 0c-72.04,0 -132.82,41.95 -159.72,106.44l-563.22 1344.48 394.12 0 78.23 -216.72 481.56 0 45.31 216.72zm-418.8 -514.09l197.56 -544.77 113.7 544.77 -311.26 0zm-1579.14 -936.83l-310.37 1450.92 -375.32 0 310.49 -1450.92 375.2 0z" style="fill: #1434CB; fill-rule: nonzero"/>
  </symbol>
  <symbol id="mc" viewBox="0 0 3174 1999.94">
    <rect x="1170.45" y="253.1" width="831.23" height="1493.73" style="fill: #FF5F00; fill-rule: nonzero"/>
    <path d="M1223.23 999.97c0.01,-0.28 0.01,-0.63 0.01,-0.86 0,-291.17 133.83,-566.26 362.84,-745.94 -167.23,-131.61 -374.25,-203.17 -587.06,-203.17 -524.57,0 -949.97,425.4 -949.97,949.97 0,524.56 425.4,949.97 949.97,949.97 212.81,0 419.83,-71.56 587.07,-203.08 -229.02,-179.75 -362.85,-454.84 -362.85,-746.03 0,-0.22 0,-0.57 0,-0.8l-0.01 -0.06z" style="fill: #EB001B; fill-rule: nonzero"/>
    <path d="M3123.04 999.97c0.01,0.04 0.01,0.04 0.01,0.04 0,524.54 -425.39,949.93 -949.93,949.93 -212.81,0 -419.82,-71.56 -587.06,-203.07 228.98,-180.04 362.85,-455.53 362.85,-746.9 0,-291.38 -133.87,-566.86 -362.84,-746.89 167.23,-131.52 374.24,-203.07 587.05,-203.07 524.54,0 949.93,425.38 949.93,949.93 0,0 0,0 0,0l-0.01 0.03z" style="fill: #F79E1B; fill-rule: nonzero"/>
  </symbol>
  <symbol id="bk" viewBox="0 0 8094 1999.89">
    <path d="M2882.56 1167.34c2.27,75.02 -56.92,129.24 -131.92,129.24l-197.2 0 0 -253.04 198.48 0c70.11,0 128.31,48.83 130.64,123.8zm4887.34 -465.09l0 753.38c0,12.98 -11.47,21.74 -24.46,21.74l-157.78 0c-12.51,0 -24.46,-9.14 -24.46,-21.74l0 -753.38 -247.5 0c-12.64,0 -21.74,-11.92 -21.74,-24.44l0 -129.16c0,-12.99 8.8,-24.62 21.74,-24.62l705.79 0c12.91,0 21.74,11.63 21.74,24.62l0 129.16c0,12.52 -9.14,24.44 -21.74,24.44l-251.59 0zm-3950.81 743.85l0 -125.16c0,-9.26 -7.03,-23.02 -23.02,-23.02l-369.45 0c-22.49,0 -67.19,-15.67 -67.19,-72.91l0 -181.41 392.7 0c16.45,0 23.48,-13.96 23.48,-22.25l0 -127.42c0,-13.29 -9.3,-23.12 -25.84,-23.12l-390.34 0 0 -101.68c0,-43.18 35.86,-66.88 67.19,-66.88l368.4 0c17.12,0 24.07,-13.28 24.07,-23.02l0 -132.02c0,-13.13 -9.74,-23.1 -25.83,-23.18l-383.54 -1.72c-144.03,-0.69 -256.98,120.02 -256.98,253.39l0 451.5c0,138.44 117.02,250.17 251.61,250.17l391.4 0c13.74,0 23.04,-10.13 23.34,-22.94 0.06,-2.43 0,-5.53 0,-8.33l0 0zm1564.7 -475.86l0 -6.8c29.22,-17.83 53.77,-40.85 73,-69.16 19.46,-28.27 33.84,-61.95 42.64,-100.45l62.51 -242.77c2.35,-10.8 -4.9,-27.03 -22.78,-27.03l-148.58 0c-4.99,-0.16 -10.1,0.75 -15.71,3.02 -5.33,2.03 -9.2,7.56 -11.45,16.07l-61.15 229.03c-7.32,27.8 -17.08,50.05 -29.06,66.3 -12.01,16.6 -25.43,28.8 -40.1,36.76 -14.57,7.92 -29.5,13.19 -44.36,15.62 -15.19,2.27 -29.52,3.45 -42.97,3.16l-107.4 0 0 -347.24c0,-14.65 -12.4,-22.72 -22.67,-22.72l-159.57 0c-13.52,0 -24.46,9.81 -24.46,21.82l0 909.78c0,12.6 11.93,21.74 24.46,21.74l157.77 0c13.06,0 24.47,-8.76 24.47,-21.74l0 -403.87 110.13 0c31.47,-0.46 58.26,2.51 80.1,8.84 21.74,6.12 39.76,17.44 54.41,34.04 14.28,16.55 26.18,40.32 35.48,71.33l83.79 295.09c4.6,12.15 13,16.31 21.68,16.31l157.83 0c19.92,0.99 25.83,-18.2 23.72,-27.09l-84.35 -315.62c-5.19,-20.32 -11.08,-38.95 -17.28,-55.42 -6.33,-16.82 -14.25,-31.79 -23.93,-45.23 -9.59,-13.35 -22.27,-25.25 -37.67,-35.92 -15.4,-10.42 -34.86,-19.78 -58.5,-27.85l0 0zm572.49 140.02l51.65 -172.27 51.71 -194.08 8.08 0 50.34 194.08 51.71 172.27 -213.49 0zm262.42 168.57l52.97 176.8c4.54,16.21 13.23,21.74 23.49,21.74l172.03 0c16.09,-0.08 26.65,-13.44 22.67,-29.59l-282.04 -849.02c-13.29,-41.44 -33.21,-74.73 -81.23,-74.73l-122.19 0.37c-24.25,-1.5 -45.45,6.72 -62,28.55 -8.37,11.02 -15.61,26.04 -21.5,45.81l-281.8 847.87c-6.26,18.88 9.5,30.74 22.03,30.74l165.48 0c5.21,0 16.52,0.83 23.47,-13.97 1.6,-3.32 3.08,-8 4.17,-11.85l52.97 -172.72 311.48 0zm847.04 -451.72c-0.06,66.52 -52.91,124.86 -124.78,124.78l-185.24 -0.15 0 -249.49 176.65 0c80.16,-2.42 133.53,58.35 133.37,124.86l0 0zm-310.02 621.71l0 -318.7 225.93 0c156.27,0 302.71,-127.88 300.21,-308.14 0,-43.42 -10.86,-84.09 -26.72,-119.73 -37.51,-83.93 -105.98,-140.1 -186.83,-164.72 -32.99,-10.11 -69.15,-13.13 -104.62,-13.5l-344.99 0c-36.76,0 -67.48,25.37 -69.06,65.45 -0.24,5.51 -0.83,11.39 -0.77,17.57l0 847.38c0,13.11 9.81,22.84 23.49,22.94l160.48 0c8.31,0 16.31,-4.99 20.02,-12.24 2.33,-4.46 2.86,-9.73 2.86,-16.31l0 0zm-4341.85 28.55l357.06 0c176.57,6.18 320.74,-116.27 326.56,-299.17 0.16,-15.62 1.05,-34.34 -3.25,-54.79 -31.24,-149.7 -149.52,-252.6 -300.21,-252.6l-240.59 0 0 -169.92 410.66 0c15.56,0.38 24.92,-10.72 24.45,-25.8l0 -121.01c0.39,-16.61 -5.79,-30.43 -24.45,-30.05l-545.26 0c-55.77,0 -72.14,40.93 -72.14,67.26l0 819.11c0,36.84 29.06,66.97 67.17,66.97l0 0zm1630.69 -862.22l-12.22 206.83c-4.01,70.43 -8.53,131.43 -13.29,183.58 -7.56,86 -16.23,292.36 -127.72,292.36l-4.39 0c-10.04,-0.16 -22.7,8.47 -22.7,22.21l0 125.97 0 6.81c0,14.49 9.73,24.46 22.92,24.46l9.99 0c84.01,-0.31 157.68,-9.2 221.09,-105.09 19.92,-30.11 37.38,-63.93 49.89,-102.27 12.68,-38.37 22.65,-81.39 29.98,-128.71 7.16,-47.35 13.05,-99.49 17.88,-156.65 4.54,-56.92 9.07,-118.64 13.59,-185.85l5.45 -95.18 265.17 0 0 750.87c0,12.7 10.96,24.17 24.47,22.88l157.61 0c16.39,0 24.62,-11.25 24.62,-24.46l0 -861.62c0.16,-35.71 -29.75,-67.26 -71.87,-67.26l-521.76 0c-40.16,0 -63.87,35.1 -65.67,64.24 -0.47,8.22 -2.51,17.14 -3.04,26.88l0 0z" style="fill: white"/>
    <path d="M1184.17 1165.22c-10.96,0 -19.92,8.97 -19.92,19.85l0 177.55 119.03 151.42 -267.21 -267.27c-7.7,-7.72 -20.31,-7.72 -28.09,0l-127.43 127.48 -23.77 189.4 0 -377.97c0,-10.94 -8.98,-19.94 -19.86,-19.94l-190.98 0 -140.78 114.99 267.22 -267.24c7.77,-7.77 7.77,-20.45 0,-28.15l-133.75 -133.84 -181.34 -17.22 377.99 0c10.92,0 19.92,-8.9 19.92,-19.92l0 -180.5 -117.91 -147.96 267.29 267.31c7.78,7.7 20.46,7.7 28.1,0l131.49 -131.49 19.31 -185.33 0 377.97c0,10.94 8.98,19.92 19.94,19.92l188.12 0 142.96 -114.97 -267.23 267.23c-7.76,7.78 -7.76,20.46 0,28.16l131.06 131.12 183.79 19.4 -377.95 0zm760.47 -43.94l-287.07 -287 -114.91 -114.97 209.26 114.97c10.96,0 19.84,-8.98 19.84,-19.92l0 -377.97c0,-10.86 -8.88,-19.77 -19.84,-19.77l-402.57 0 -165.93 0 231.3 -65.53c7.7,-7.64 7.7,-20.29 0,-28.09l-267.23 -267.21c-7.78,-7.72 -20.38,-7.72 -28.16,0l-284.13 284.11 -121.54 122.98 -0.06 0.16 -0.08 0 0.24 -0.38 0.67 -1.2 120.77 -215.52c0,-11.04 -8.98,-19.92 -19.92,-19.92l-377.97 0c-10.88,0 -19.87,8.88 -19.87,19.92l0 404.39 0 164.05 -66.95 -231c-7.86,-7.7 -20.45,-7.7 -28.15,0l-267.23 267.29c-7.84,7.7 -7.84,20.3 0,28.09l401.96 401.97 -208.71 -114.97c-10.88,0 -19.86,8.98 -19.86,19.94l0 377.95c0,10.96 8.98,19.94 19.86,19.94l402.79 0 165.79 0 -230.93 65.14c-7.77,7.7 -7.77,20.39 0,28.15l267.24 267.23c7.76,7.7 20.45,7.7 28.15,0l282.87 -282.92 117.45 -117.4 -117.45 209.8c0,10.95 8.96,19.92 19.92,19.92l377.95 0c10.86,0 19.87,-8.97 19.87,-19.92l0 -404.1 0 -164.42 67.26 231.69c7.78,7.7 20.46,7.7 28.14,0l267.25 -267.23c7.76,-7.78 7.76,-20.46 0,-28.23l-0.02 -0.02z" style="fill: white"/>
  </symbol>
  <symbol id="bk-color" viewBox="0 0 8094 1999.89">
    <path d="M2882.56 1167.34c2.27,75.02 -56.92,129.24 -131.92,129.24l-197.2 0 0 -253.04 198.48 0c70.11,0 128.31,48.83 130.64,123.8zm4887.34 -465.09l0 753.38c0,12.98 -11.47,21.74 -24.46,21.74l-157.78 0c-12.51,0 -24.46,-9.14 -24.46,-21.74l0 -753.38 -247.5 0c-12.64,0 -21.74,-11.92 -21.74,-24.44l0 -129.16c0,-12.99 8.8,-24.62 21.74,-24.62l705.79 0c12.91,0 21.74,11.63 21.74,24.62l0 129.16c0,12.52 -9.14,24.44 -21.74,24.44l-251.59 0zm-3950.81 743.85l0 -125.16c0,-9.26 -7.03,-23.02 -23.02,-23.02l-369.45 0c-22.49,0 -67.19,-15.67 -67.19,-72.91l0 -181.41 392.7 0c16.45,0 23.48,-13.96 23.48,-22.25l0 -127.42c0,-13.29 -9.3,-23.12 -25.84,-23.12l-390.34 0 0 -101.68c0,-43.18 35.86,-66.88 67.19,-66.88l368.4 0c17.12,0 24.07,-13.28 24.07,-23.02l0 -132.02c0,-13.13 -9.74,-23.1 -25.83,-23.18l-383.54 -1.72c-144.03,-0.69 -256.98,120.02 -256.98,253.39l0 451.5c0,138.44 117.02,250.17 251.61,250.17l391.4 0c13.74,0 23.04,-10.13 23.34,-22.94 0.06,-2.43 0,-5.53 0,-8.33l0 0zm1564.7 -475.86l0 -6.8c29.22,-17.83 53.77,-40.85 73,-69.16 19.46,-28.27 33.84,-61.95 42.64,-100.45l62.51 -242.77c2.35,-10.8 -4.9,-27.03 -22.78,-27.03l-148.58 0c-4.99,-0.16 -10.1,0.75 -15.71,3.02 -5.33,2.03 -9.2,7.56 -11.45,16.07l-61.15 229.03c-7.32,27.8 -17.08,50.05 -29.06,66.3 -12.01,16.6 -25.43,28.8 -40.1,36.76 -14.57,7.92 -29.5,13.19 -44.36,15.62 -15.19,2.27 -29.52,3.45 -42.97,3.16l-107.4 0 0 -347.24c0,-14.65 -12.4,-22.72 -22.67,-22.72l-159.57 0c-13.52,0 -24.46,9.81 -24.46,21.82l0 909.78c0,12.6 11.93,21.74 24.46,21.74l157.77 0c13.06,0 24.47,-8.76 24.47,-21.74l0 -403.87 110.13 0c31.47,-0.46 58.26,2.51 80.1,8.84 21.74,6.12 39.76,17.44 54.41,34.04 14.28,16.55 26.18,40.32 35.48,71.33l83.79 295.09c4.6,12.15 13,16.31 21.68,16.31l157.83 0c19.92,0.99 25.83,-18.2 23.72,-27.09l-84.35 -315.62c-5.19,-20.32 -11.08,-38.95 -17.28,-55.42 -6.33,-16.82 -14.25,-31.79 -23.93,-45.23 -9.59,-13.35 -22.27,-25.25 -37.67,-35.92 -15.4,-10.42 -34.86,-19.78 -58.5,-27.85l0 0zm572.49 140.02l51.65 -172.27 51.71 -194.08 8.08 0 50.34 194.08 51.71 172.27 -213.49 0zm262.42 168.57l52.97 176.8c4.54,16.21 13.23,21.74 23.49,21.74l172.03 0c16.09,-0.08 26.65,-13.44 22.67,-29.59l-282.04 -849.02c-13.29,-41.44 -33.21,-74.73 -81.23,-74.73l-122.19 0.37c-24.25,-1.5 -45.45,6.72 -62,28.55 -8.37,11.02 -15.61,26.04 -21.5,45.81l-281.8 847.87c-6.26,18.88 9.5,30.74 22.03,30.74l165.48 0c5.21,0 16.52,0.83 23.47,-13.97 1.6,-3.32 3.08,-8 4.17,-11.85l52.97 -172.72 311.48 0zm847.04 -451.72c-0.06,66.52 -52.91,124.86 -124.78,124.78l-185.24 -0.15 0 -249.49 176.65 0c80.16,-2.42 133.53,58.35 133.37,124.86l0 0zm-310.02 621.71l0 -318.7 225.93 0c156.27,0 302.71,-127.88 300.21,-308.14 0,-43.42 -10.86,-84.09 -26.72,-119.73 -37.51,-83.93 -105.98,-140.1 -186.83,-164.72 -32.99,-10.11 -69.15,-13.13 -104.62,-13.5l-344.99 0c-36.76,0 -67.48,25.37 -69.06,65.45 -0.24,5.51 -0.83,11.39 -0.77,17.57l0 847.38c0,13.11 9.81,22.84 23.49,22.94l160.48 0c8.31,0 16.31,-4.99 20.02,-12.24 2.33,-4.46 2.86,-9.73 2.86,-16.31l0 0zm-4341.85 28.55l357.06 0c176.57,6.18 320.74,-116.27 326.56,-299.17 0.16,-15.62 1.05,-34.34 -3.25,-54.79 -31.24,-149.7 -149.52,-252.6 -300.21,-252.6l-240.59 0 0 -169.92 410.66 0c15.56,0.38 24.92,-10.72 24.45,-25.8l0 -121.01c0.39,-16.61 -5.79,-30.43 -24.45,-30.05l-545.26 0c-55.77,0 -72.14,40.93 -72.14,67.26l0 819.11c0,36.84 29.06,66.97 67.17,66.97l0 0zm1630.69 -862.22l-12.22 206.83c-4.01,70.43 -8.53,131.43 -13.29,183.58 -7.56,86 -16.23,292.36 -127.72,292.36l-4.39 0c-10.04,-0.16 -22.7,8.47 -22.7,22.21l0 125.97 0 6.81c0,14.49 9.73,24.46 22.92,24.46l9.99 0c84.01,-0.31 157.68,-9.2 221.09,-105.09 19.92,-30.11 37.38,-63.93 49.89,-102.27 12.68,-38.37 22.65,-81.39 29.98,-128.71 7.16,-47.35 13.05,-99.49 17.88,-156.65 4.54,-56.92 9.07,-118.64 13.59,-185.85l5.45 -95.18 265.17 0 0 750.87c0,12.7 10.96,24.17 24.47,22.88l157.61 0c16.39,0 24.62,-11.25 24.62,-24.46l0 -861.62c0.16,-35.71 -29.75,-67.26 -71.87,-67.26l-521.76 0c-40.16,0 -63.87,35.1 -65.67,64.24 -0.47,8.22 -2.51,17.14 -3.04,26.88l0 0z" style="fill: #005A95"/>
    <path d="M1184.17 1165.22c-10.96,0 -19.92,8.97 -19.92,19.85l0 177.55 119.03 151.42 -267.21 -267.27c-7.7,-7.72 -20.31,-7.72 -28.09,0l-127.43 127.48 -23.77 189.4 0 -377.97c0,-10.94 -8.98,-19.94 -19.86,-19.94l-190.98 0 -140.78 114.99 267.22 -267.24c7.77,-7.77 7.77,-20.45 0,-28.15l-133.75 -133.84 -181.34 -17.22 377.99 0c10.92,0 19.92,-8.9 19.92,-19.92l0 -180.5 -117.91 -147.96 267.29 267.31c7.78,7.7 20.46,7.7 28.1,0l131.49 -131.49 19.31 -185.33 0 377.97c0,10.94 8.98,19.92 19.94,19.92l188.12 0 142.96 -114.97 -267.23 267.23c-7.76,7.78 -7.76,20.46 0,28.16l131.06 131.12 183.79 19.4 -377.95 0zm760.47 -43.94l-287.07 -287 -114.91 -114.97 209.26 114.97c10.96,0 19.84,-8.98 19.84,-19.92l0 -377.97c0,-10.86 -8.88,-19.77 -19.84,-19.77l-402.57 0 -165.93 0 231.3 -65.53c7.7,-7.64 7.7,-20.29 0,-28.09l-267.23 -267.21c-7.78,-7.72 -20.38,-7.72 -28.16,0l-284.13 284.11 -121.54 122.98 -0.06 0.16 -0.08 0 0.24 -0.38 0.67 -1.2 120.77 -215.52c0,-11.04 -8.98,-19.92 -19.92,-19.92l-377.97 0c-10.88,0 -19.87,8.88 -19.87,19.92l0 404.39 0 164.05 -66.95 -231c-7.86,-7.7 -20.45,-7.7 -28.15,0l-267.23 267.29c-7.84,7.7 -7.84,20.3 0,28.09l401.96 401.97 -208.71 -114.97c-10.88,0 -19.86,8.98 -19.86,19.94l0 377.95c0,10.96 8.98,19.94 19.86,19.94l402.79 0 165.79 0 -230.93 65.14c-7.77,7.7 -7.77,20.39 0,28.15l267.24 267.23c7.76,7.7 20.45,7.7 28.15,0l282.87 -282.92 117.45 -117.4 -117.45 209.8c0,10.95 8.96,19.92 19.92,19.92l377.95 0c10.86,0 19.87,-8.97 19.87,-19.92l0 -404.1 0 -164.42 67.26 231.69c7.78,7.7 20.46,7.7 28.14,0l267.25 -267.23c7.76,-7.78 7.76,-20.46 0,-28.23l-0.02 -0.02z" style="fill: #005A95"/>
  </symbol>
  <symbol id="assist" viewBox="0 0 994 358.22">
    <path d="M549.7 238.81l-21.57 0 2.82 -14.69c-2.82,1.87 -5.94,4.06 -8.76,5.94 -2.81,1.87 -5.94,3.75 -9.06,5.62 -3.13,1.57 -6.57,3.13 -10.32,4.07 -3.75,0.94 -7.81,1.56 -12.19,1.56 -4.37,0 -7.81,-0.62 -10.94,-2.19 -3.12,-1.25 -5.62,-3.12 -7.81,-5.62 -1.88,-2.5 -3.13,-5.32 -3.75,-8.44 -0.63,-3.44 -0.63,-6.88 0.31,-10.63 0.94,-4.69 2.5,-8.75 5.31,-12.5 2.51,-3.75 5.63,-7.19 9.38,-10.01 3.75,-2.81 8.13,-5.62 12.82,-7.81 4.69,-2.19 9.69,-4.38 14.69,-6.25 5,-1.88 10.31,-3.44 15.63,-4.69 5.31,-1.57 10.63,-2.82 15.63,-4.07l1.25 -6.87c0.93,-5 1.25,-9.07 0.93,-12.51 -0.31,-3.43 -1.25,-6.25 -2.5,-8.12 -1.56,-2.19 -3.43,-3.44 -5.62,-4.38 -2.5,-0.94 -5.32,-1.25 -8.44,-1.25 -3.75,0 -6.57,0.63 -9.07,1.56 -2.5,0.94 -4.37,2.19 -6.25,3.75 -1.56,1.57 -2.81,3.44 -3.75,5.32 -0.94,1.87 -1.56,4.06 -1.88,5.94 -0.31,1.87 -0.93,3.75 -1.56,5.31 -0.62,1.88 -1.56,3.13 -2.5,4.69 -0.94,1.25 -2.5,2.5 -3.75,3.13 -1.56,0.93 -3.44,1.25 -5.63,1.25 -1.56,0 -3.12,-0.32 -4.37,-0.94 -1.25,-0.63 -2.19,-1.56 -3.13,-2.81 -0.94,-1.25 -1.25,-2.51 -1.56,-4.07 -0.32,-1.56 -0.32,-3.12 0.31,-5 0.63,-3.44 2.5,-6.88 5.31,-10 2.82,-3.13 6.57,-5.63 10.94,-8.13 4.38,-2.19 9.38,-4.06 15.01,-5.31 5.62,-1.25 11.25,-1.88 17.19,-1.88 7.19,0 13.13,0.63 17.5,2.19 4.69,1.25 8.13,3.44 10.63,5.94 2.5,2.5 4.07,5.63 4.69,9.06 0.63,3.44 0.63,7.51 -0.31,11.88l-15.63 80.96 0 0zm-9.38 -62.83l0 0c-3.44,0.94 -6.56,2.19 -10.31,3.44 -3.44,1.25 -7.19,2.81 -10.63,4.37 -3.44,1.57 -6.88,3.44 -10,5 -3.13,1.88 -6.26,3.76 -8.76,5.94 -2.5,2.19 -4.68,4.38 -6.56,6.57 -1.88,2.5 -2.81,4.69 -3.44,7.5 -0.62,2.5 -0.62,5 0,7.5 0.63,2.5 1.25,4.38 2.82,6.25 1.25,1.88 2.81,3.13 4.68,4.38 1.88,0.94 4.07,1.56 6.26,1.56 2.5,0 4.69,-0.31 7.19,-0.94 2.18,-0.62 4.68,-1.56 6.87,-2.5 2.19,-0.93 4.69,-2.18 6.88,-3.75 2.19,-1.56 4.69,-3.12 7.19,-4.69l7.81 -40.63 0 0 0 0zm73.46 57.83c2.81,0 5.62,-0.32 8.44,-1.25 2.81,-0.94 5,-2.19 7.19,-3.44 2.18,-1.56 3.75,-3.13 5.31,-5 1.25,-1.88 2.19,-4.07 2.81,-5.94 0.63,-3.44 0.32,-6.25 -0.93,-8.75 -1.25,-2.5 -2.82,-4.69 -5.32,-6.57 -2.19,-1.87 -5,-3.75 -8.13,-5.31 -3.12,-1.56 -6.25,-3.13 -9.69,-5 -3.12,-1.56 -6.56,-3.44 -9.68,-5.63 -3.13,-1.87 -5.63,-4.37 -8.13,-6.87 -2.19,-2.5 -3.75,-5.63 -4.69,-9.07 -0.94,-3.44 -0.94,-7.5 0,-12.19 0.94,-4.37 2.5,-8.44 5,-12.19 2.5,-3.75 5.63,-6.88 9.38,-9.69 3.75,-2.81 8.12,-4.69 12.81,-6.25 4.69,-1.56 10.01,-2.19 15.32,-2.19 3.44,0 6.88,0.31 10,0.63 3.13,0.62 5.94,1.56 8.76,2.81 2.81,1.56 5.31,3.44 7.81,5.94 2.5,2.5 5,5.94 7.19,10.31l-9.38 7.19c-2.81,-6.56 -6.56,-11.57 -10.94,-15 -4.37,-3.44 -9.69,-5 -15.32,-5 -3.12,0 -5.93,0.31 -8.44,1.25 -2.81,0.62 -5,1.87 -7.18,3.12 -2.19,1.25 -3.76,2.81 -5,4.69 -1.25,1.88 -2.19,3.44 -2.51,5.63 -0.62,3.12 -0.31,5.94 0.94,8.44 1.25,2.5 3.44,4.69 5.94,6.56 2.5,1.88 5.63,3.75 9.07,5.32 3.43,1.56 6.87,3.43 10.62,5 3.75,1.56 7.19,3.43 10.63,5.62 3.44,1.88 6.25,4.07 8.75,6.88 2.5,2.5 4.38,5.63 5.32,9.07 1.25,3.43 1.25,7.18 0.31,11.87 -0.94,4.69 -2.5,8.75 -5,12.82 -2.5,4.06 -5.63,7.5 -9.69,10.31 -4.06,2.82 -8.75,5.32 -14.38,6.88 -5.62,1.56 -11.88,2.5 -18.75,2.5 -3.13,0 -6.26,-0.31 -9.69,-0.62 -3.13,-0.63 -6.26,-1.57 -9.38,-2.82 -3.13,-1.56 -6.25,-3.43 -9.07,-6.25 -2.81,-2.5 -5.62,-5.94 -7.81,-10.31l10.31 -7.82c1.88,3.75 3.75,6.88 5.63,9.38 1.88,2.5 4.06,4.69 5.94,6.25 2.19,1.57 4.38,2.81 6.88,3.75 2.81,0.63 5.62,0.94 8.75,0.94l0 0 0 0zm97.52 0c2.82,0 5.63,-0.32 8.44,-1.25 2.82,-0.94 5,-2.19 7.19,-3.44 2.19,-1.56 3.75,-3.13 5.32,-5 1.25,-1.88 2.18,-4.07 2.81,-5.94 0.62,-3.44 0.31,-6.25 -0.94,-8.75 -1.25,-2.5 -2.81,-4.69 -5.31,-6.57 -2.19,-1.87 -5,-3.75 -8.13,-5.31 -3.13,-1.56 -6.25,-3.13 -9.69,-5 -3.13,-1.56 -6.56,-3.44 -9.69,-5.63 -3.13,-1.87 -5.62,-4.37 -8.13,-6.87 -2.18,-2.5 -3.75,-5.63 -4.68,-9.07 -0.94,-3.44 -0.94,-7.5 0,-12.19 0.93,-4.37 2.5,-8.44 5,-12.19 2.5,-3.75 5.62,-6.88 9.37,-9.69 3.75,-2.81 8.13,-4.69 12.82,-6.25 4.69,-1.56 10,-2.19 15.32,-2.19 3.43,0 6.87,0.31 10,0.63 3.13,0.62 5.94,1.56 8.75,2.81 2.81,1.56 5.32,3.44 7.82,5.94 2.5,2.5 5,5.94 7.19,10.31l-9.38 7.19c-2.82,-6.56 -6.57,-11.57 -10.94,-15 -4.38,-3.44 -9.69,-5 -15.32,-5 -3.13,0 -5.94,0.31 -8.44,1.25 -2.81,0.62 -5,1.87 -7.19,3.12 -2.19,1.25 -3.75,2.81 -5,4.69 -1.25,1.88 -2.19,3.44 -2.5,5.63 -0.63,3.12 -0.31,5.94 0.94,8.44 1.25,2.5 3.44,4.69 5.94,6.56 2.5,1.88 5.62,3.75 9.06,5.32 3.44,1.56 6.88,3.43 10.63,5 3.75,1.56 7.19,3.43 10.63,5.62 3.44,1.88 6.25,4.07 8.75,6.88 2.5,2.5 4.38,5.63 5.31,9.07 1.25,3.43 1.25,7.18 0.32,11.87 -0.94,4.69 -2.5,8.75 -5,12.82 -2.51,4.06 -5.63,7.5 -9.69,10.31 -4.07,2.82 -8.76,5.32 -14.38,6.88 -5.63,1.56 -11.88,2.5 -18.76,2.5 -3.12,0 -6.25,-0.31 -9.69,-0.62 -3.12,-0.63 -6.25,-1.57 -9.38,-2.82 -3.12,-1.56 -6.25,-3.43 -9.06,-6.25 -2.81,-2.5 -5.63,-5.94 -7.82,-10.31l10.32 -7.82c1.88,3.75 3.75,6.88 5.63,9.38 1.87,2.5 4.06,4.69 5.94,6.25 2.18,1.57 4.37,2.81 6.87,3.75 3.13,0.63 5.63,0.94 8.75,0.94l0 0 0 0zm83.46 -99.09l16.26 -6.25 6.25 0 -21.57 110.34 -21.26 0 20.32 -104.09 0 0zm62.83 99.09c2.81,0 5.63,-0.32 8.44,-1.25 2.81,-0.94 5,-2.19 7.19,-3.44 2.19,-1.56 3.75,-3.13 5.31,-5 1.25,-1.88 2.19,-4.07 2.82,-5.94 0.62,-3.44 0.31,-6.25 -0.94,-8.75 -1.25,-2.5 -2.81,-4.69 -5.32,-6.57 -2.18,-1.87 -5,-3.75 -8.12,-5.31 -3.13,-1.56 -6.25,-3.13 -9.69,-5 -3.13,-1.56 -6.57,-3.44 -9.69,-5.63 -3.13,-1.87 -5.63,-4.37 -8.13,-6.87 -2.19,-2.5 -3.75,-5.63 -4.69,-9.07 -0.94,-3.44 -0.94,-7.5 0,-12.19 0.94,-4.37 2.5,-8.44 5,-12.19 2.5,-3.75 5.63,-6.88 9.38,-9.69 3.75,-2.81 8.13,-4.69 12.82,-6.25 4.69,-1.56 10,-2.19 15.31,-2.19 3.44,0 6.88,0.31 10.01,0.63 3.12,0.62 5.93,1.56 8.75,2.81 2.81,1.56 5.31,3.44 7.81,5.94 2.5,2.5 5,5.94 7.19,10.31l-9.38 7.19c-2.81,-6.56 -6.56,-11.57 -10.94,-15 -4.37,-3.44 -9.69,-5 -15.31,-5 -3.13,0 -5.94,0.31 -8.44,1.25 -2.82,0.62 -5,1.87 -7.19,3.12 -2.19,1.25 -3.75,2.81 -5,4.69 -1.25,1.88 -2.19,3.44 -2.5,5.63 -0.63,3.12 -0.32,5.94 0.93,8.44 1.25,2.5 3.44,4.69 5.94,6.56 2.5,1.88 5.63,3.75 9.07,5.32 3.44,1.56 6.87,3.43 10.63,5 3.75,1.56 7.19,3.43 10.62,5.62 3.44,1.88 6.26,4.07 8.76,6.88 2.49,2.5 4.37,5.63 5.31,9.07 1.25,3.43 1.25,7.18 0.31,11.87 -0.94,4.69 -2.5,8.75 -5,12.82 -2.5,4.06 -5.62,7.5 -9.69,10.31 -4.06,2.82 -8.75,5.32 -14.38,6.88 -5.62,1.56 -11.88,2.5 -18.75,2.5 -3.13,0 -6.25,-0.31 -9.69,-0.62 -3.13,-0.63 -6.25,-1.57 -9.38,-2.82 -3.13,-1.56 -6.25,-3.43 -9.06,-6.25 -2.82,-2.5 -5.63,-5.94 -7.82,-10.31l10.32 -7.82c1.87,3.75 3.75,6.88 5.62,9.38 1.88,2.5 4.07,4.69 5.94,6.25 2.19,1.57 4.38,2.81 6.88,3.75 2.81,0.63 5.62,0.94 8.75,0.94l0 0 0 0zm122.22 -8.75c-3.75,5 -8.44,8.75 -13.75,11.87 -5.32,2.82 -11.57,4.38 -18.45,4.38 -3.75,0 -6.56,-0.63 -9.06,-1.88 -2.5,-1.25 -4.38,-2.81 -5.63,-5 -1.25,-2.19 -2.19,-5 -2.19,-7.81 -0.31,-3.13 0,-6.57 0.63,-10.32l14.69 -76.27 -18.76 0 0.94 -5.31c5.94,0 11.26,-0.94 15.63,-3.13 4.38,-2.18 8.13,-5 11.25,-8.75 3.13,-3.75 5.94,-8.12 8.44,-12.81 2.5,-5 4.69,-10.01 6.88,-15.63l6.25 0 -7.19 36.88 24.39 0 -1.88 9.07 -24.38 0 -14.69 76.27c-0.31,1.56 -0.31,3.12 0,4.68 0.31,1.57 0.94,2.51 1.87,3.76 0.94,0.93 1.88,1.87 3.13,2.5 1.25,0.62 2.81,0.93 4.38,0.93 2.5,0 4.68,-0.62 6.87,-1.87 2.19,-1.25 4.38,-2.5 5.94,-4.38l4.69 2.82 0 0 0 0zm-747.38 -224.12l0 0c84.09,0 154.1,59.7 172.23,139.41 21.26,-6.57 46.89,-16.57 60.96,-34.39 -124.41,201.3 -290.7,-64.08 -452.31,69.71 17.82,-22.19 34.08,-42.51 52.2,-53.14 23.76,-70.64 89.4,-121.59 166.92,-121.59l0 0 0 0zm131.29 146.6c-14.38,-60.02 -67.83,-104.41 -131.29,-104.41 -46.89,0 -87.83,24.38 -112.21,60.96 101.27,-7.5 159.72,55.32 243.5,43.45l0 0 0 0zm-130.98 211.61c77.52,0 143.48,-50.64 167.23,-121.28 18.13,-10.63 34.39,-30.94 52.2,-53.14 -161.91,133.79 -328.2,-131.9 -452.3,69.71 14.07,-17.82 39.7,-27.82 60.96,-34.39 17.5,79.4 87.83,139.1 171.91,139.1l0 0 0 0 0 0zm-131.28 -146.6c14.38,60.02 67.83,104.4 131.28,104.4 46.89,0 87.84,-24.38 112.22,-60.95 -101.28,7.82 -159.42,-55.32 -243.5,-43.45l0 0 0 0zm-42.2 -80.64c83.15,-44.08 163.48,20 253.82,27.5 -106.59,-21.25 -173.48,-79.08 -253.82,-27.5l0 0zm-11.25 71.89c83.15,-44.07 163.48,20 253.82,27.51 -106.59,-21.26 -173.49,-79.09 -253.82,-27.51l0 0zm127.53 121.59c61.89,23.45 153.79,15.95 187.86,-68.76 -50.32,79.39 -115.96,79.39 -187.86,68.76l0 0zm113.47 -302.26c-61.89,-23.44 -155.35,-10.94 -189.11,73.77 50.32,-79.71 117.22,-84.4 189.11,-73.77l0 0zm524.82 70.95l0 0c1.56,0 3.13,0.32 4.69,0.94 1.25,0.63 2.5,1.25 3.44,2.19 0.94,0.94 1.56,2.19 1.87,3.44 0.32,1.25 0.63,2.81 0.32,4.06 -0.32,1.57 -0.94,2.82 -1.88,4.07 -0.94,1.25 -2.19,2.5 -3.44,3.43 -1.25,0.94 -2.81,1.88 -4.37,2.19 -1.57,0.63 -3.13,0.94 -5,0.94 -1.57,0 -3.13,-0.31 -4.69,-0.94 -1.25,-0.62 -2.5,-1.25 -3.44,-2.19 -0.94,-0.93 -1.56,-2.18 -1.88,-3.43 -0.31,-1.25 -0.62,-2.82 -0.31,-4.07 0.31,-1.56 0.94,-2.81 1.88,-4.06 0.93,-1.25 2.18,-2.5 3.43,-3.44 1.25,-0.94 2.82,-1.88 4.38,-2.19 1.87,-0.62 3.44,-0.94 5,-0.94l0 0z" style="shape-rendering: geometricPrecision; text-rendering: geometricPrecision; image-rendering: optimizeQuality; fill: #00692F; fill-rule: evenodd; clip-rule: evenodd"/>
  </symbol>
  <symbol id="vegan" viewBox="0 0 512 512">
    <path d="M512 165.4c0 127.9-70.05 235.3-175.3 270.1c-20.04 7.938-41.83 12.46-64.69 12.46c-64.9 0-125.2-36.51-155.7-94.47c-54.13 49.93-68.71 107-68.96 108.1C44.72 472.6 34.87 480 24.02 480c-1.844 0-3.727-.2187-5.602-.6562c-12.89-3.098-20.84-16.08-17.75-28.96c9.598-39.5 90.47-226.4 335.3-226.4C344.8 224 352 216.8 352 208S344.8 192 336 192C228.6 192 151 226.6 96.29 267.6c.1934-10.82 1.242-21.84 3.535-33.05c13.47-65.81 66.04-119 131.4-134.2c28.33-6.562 55.68-6.013 80.93-.0054c56 13.32 118.2-7.412 149.3-61.24c5.664-9.828 20.02-9.516 24.66 .8282C502.7 76.76 512 121.9 512 165.4z" style="fill: white"/>
  </symbol>
  <symbol id="pin" viewBox="0 0 320 512">
    <path d="M128 316.9v143.3c0 4.967 1.156 9.866 3.379 14.31l14.31 28.62c5.896 11.79 22.72 11.79 28.62 0l14.31-28.62C190.8 470.1 192 465.2 192 460.2V316.9C181.6 318.9 170.9 320 160 320S138.4 318.9 128 316.9zM160-.0002c-79.53 0-144 64.47-144 144S80.47 288 160 288s144-64.47 144-144S239.5-.0002 160-.0002zM160 79.1c-35.28 0-64 28.72-64 64c0 8.844-7.156 16-16 16S64 152.8 64 143.1c0-52.94 43.06-96 96-96c8.844 0 16 7.156 16 15.1S168.8 79.1 160 79.1z" style="fill: #4A4A4A"/>
  </symbol>
</svg>